<svg width="12" height="8" viewBox="0 0 12 8" fill="none" xmlns="http://www.w3.org/2000/svg">
<path d="M5.44 6.30711L1.57333 2.5095C1.52 2.45711 1.48017 2.40054 1.45386 2.33978C1.42755 2.27902 1.41404 2.21337 1.41333 2.14283C1.41333 2.00315 1.4624 1.88092 1.56053 1.77616C1.65866 1.6714 1.78737 1.61902 1.94666 1.61902H10.0533C10.2133 1.61902 10.3424 1.6714 10.4405 1.77616C10.5387 1.88092 10.5874 2.00315 10.5867 2.14283C10.5867 2.17775 10.5333 2.29997 10.4267 2.5095L6.56 6.30711C6.47111 6.39442 6.38222 6.45553 6.29333 6.49045C6.20444 6.52537 6.10666 6.54283 6 6.54283C5.89333 6.54283 5.79555 6.52537 5.70666 6.49045C5.61778 6.45553 5.52889 6.39442 5.44 6.30711Z" fill="#FAF2FF"/>
</svg>
