<svg width="29" height="29" viewBox="0 0 29 29" fill="none" xmlns="http://www.w3.org/2000/svg">
<path fill-rule="evenodd" clip-rule="evenodd" d="M11.4791 1.20834C10.4781 1.20834 9.66664 2.01982 9.66664 3.02084C9.66664 4.02186 10.4781 4.83334 11.4791 4.83334H17.5208C18.5218 4.83334 19.3333 4.02186 19.3333 3.02084C19.3333 2.01982 18.5218 1.20834 17.5208 1.20834H11.4791ZM10.875 7.25001C8.873 7.25001 7.25002 5.62704 7.25002 3.62501V2.93453C7.25002 2.64853 7.01817 2.41668 6.73217 2.41668C5.01612 2.41668 3.625 3.80781 3.625 5.52385L3.62502 24.1667C3.62502 26.1688 5.24799 27.7917 7.25002 27.7917H21.75C23.7521 27.7917 25.375 26.1688 25.375 24.1667V5.53487C25.375 3.81277 23.9789 2.41679 22.2568 2.41692C21.9698 2.41694 21.7372 2.6496 21.7372 2.93659V3.66229C21.7168 5.64967 20.0999 7.25001 18.1124 7.25001H10.875ZM18.9794 12.4373C19.4513 12.9091 19.4513 13.6742 18.9794 14.1461L14.1461 18.9794C13.6742 19.4513 12.9091 19.4513 12.4373 18.9794L10.0206 16.5628C9.5487 16.0909 9.54869 15.3258 10.0206 14.8539C10.4924 14.3821 11.2575 14.3821 11.7294 14.8539L13.2917 16.4161L17.2706 12.4373C17.7424 11.9654 18.5076 11.9654 18.9794 12.4373Z" fill="#A93AFF"/>
</svg>
