<svg width="19" height="19" viewBox="0 0 19 19" fill="none" xmlns="http://www.w3.org/2000/svg">
<g clip-path="url(#clip0_998_1195)">
<path d="M14.25 18.0104C16.3268 18.0104 18.0104 16.3268 18.0104 14.25C18.0104 12.1732 16.3268 10.4896 14.25 10.4896C12.1732 10.4896 10.4896 12.1732 10.4896 14.25C10.4896 16.3268 12.1732 18.0104 14.25 18.0104Z" fill="#A93AFF"/>
<path d="M6.33334 0.989594H3.16668C1.96431 0.989594 0.989594 1.96431 0.989594 3.16668V6.33334C0.989594 7.53571 1.96431 8.51043 3.16668 8.51043H6.33334C7.53571 8.51043 8.51043 7.53571 8.51043 6.33334V3.16668C8.51043 1.96431 7.53571 0.989594 6.33334 0.989594Z" fill="#FAF2FF" fill-opacity="0.8"/>
<path d="M6.33334 10.4896H3.16668C1.96431 10.4896 0.989594 11.4643 0.989594 12.6667V15.8333C0.989594 17.0357 1.96431 18.0104 3.16668 18.0104H6.33334C7.53571 18.0104 8.51043 17.0357 8.51043 15.8333V12.6667C8.51043 11.4643 7.53571 10.4896 6.33334 10.4896Z" fill="#FAF2FF" fill-opacity="0.8"/>
<path d="M15.8333 0.989594H12.6667C11.4643 0.989594 10.4896 1.96431 10.4896 3.16668V6.33334C10.4896 7.53571 11.4643 8.51043 12.6667 8.51043H15.8333C17.0357 8.51043 18.0104 7.53571 18.0104 6.33334V3.16668C18.0104 1.96431 17.0357 0.989594 15.8333 0.989594Z" fill="#FAF2FF" fill-opacity="0.8"/>
</g>
<defs>
<clipPath id="clip0_998_1195">
<rect width="19" height="19" fill="white"/>
</clipPath>
</defs>
</svg>
