<svg width="31" height="32" viewBox="0 0 31 32" fill="none" xmlns="http://www.w3.org/2000/svg">
<g clip-path="url(#clip0_1111_6686)">
<path d="M10.7993 1.51961C7.70189 2.59412 5.03071 4.63358 3.17809 7.33841C1.32547 10.0433 0.389064 13.2709 0.506406 16.5473C0.623748 19.8236 1.78866 22.976 3.83003 25.5414C5.8714 28.1068 8.68163 29.9499 11.8479 30.8001C14.4149 31.4625 17.1044 31.4915 19.6851 30.8848C22.023 30.3597 24.1844 29.2364 25.9578 27.625C27.8035 25.8966 29.1431 23.6979 29.8328 21.2652C30.5822 18.6196 30.7155 15.8376 30.2227 13.1325H15.8077V19.1121H24.1559C23.9891 20.0658 23.6315 20.9761 23.1047 21.7884C22.5779 22.6007 21.8926 23.2983 21.0898 23.8396C20.0705 24.5142 18.9213 24.9679 17.7161 25.1716C16.5075 25.3964 15.2678 25.3964 14.0591 25.1716C12.834 24.9186 11.6751 24.413 10.6564 23.687C9.01955 22.5284 7.79052 20.8823 7.14466 18.9838C6.48807 17.0496 6.48807 14.9528 7.14466 13.0187C7.6044 11.6629 8.3644 10.4286 9.36794 9.40766C10.5164 8.21791 11.9703 7.36746 13.5703 6.94964C15.1702 6.53182 16.8543 6.56276 18.4379 7.03907C19.675 7.41863 20.8062 8.08211 21.7413 8.97657C22.6826 8.04011 23.6223 7.10123 24.5604 6.15993C25.0447 5.65375 25.5727 5.1718 26.0498 4.65352C24.6222 3.32516 22.9466 2.29147 21.1189 1.61164C17.7905 0.403103 14.1487 0.370625 10.7993 1.51961Z" fill="white"/>
<path d="M10.7992 1.51961C14.1483 0.369846 17.7901 0.40147 21.1188 1.60922C22.9468 2.29367 24.6217 3.33234 26.0473 4.66563C25.5629 5.18391 25.0519 5.66829 24.5578 6.17204C23.6181 7.11011 22.6793 8.04495 21.7412 8.97657C20.8061 8.08212 19.6748 7.41863 18.4378 7.03907C16.8548 6.56109 15.1707 6.52836 13.5703 6.94447C11.9699 7.36059 10.5151 8.20947 9.36541 9.39797C8.36187 10.4189 7.60186 11.6533 7.14213 13.009L2.12158 9.12188C3.91863 5.55824 7.03011 2.83233 10.7992 1.51961Z" fill="#E33629"/>
<path d="M0.789563 12.9727C1.05921 11.6352 1.50723 10.3401 2.12159 9.12187L7.14214 13.0187C6.48555 14.9528 6.48555 17.0496 7.14214 18.9837C5.46943 20.2754 3.79592 21.5735 2.12159 22.8781C0.584069 19.8176 0.11515 16.3306 0.789563 12.9727Z" fill="#F8BD00"/>
<path d="M15.8077 13.1301H30.2227C30.7155 15.8352 30.5822 18.6172 29.8328 21.2627C29.1431 23.6955 27.8035 25.8942 25.9578 27.6226C24.3376 26.3584 22.7101 25.1038 21.0898 23.8396C21.8931 23.2978 22.5787 22.5994 23.1056 21.7862C23.6324 20.973 23.9897 20.0618 24.1559 19.1073H15.8077C15.8053 17.1165 15.8077 15.1233 15.8077 13.1301Z" fill="#587DBD"/>
<path d="M2.11914 22.8781C3.79346 21.5865 5.46698 20.2883 7.13969 18.9837C7.78683 20.883 9.01762 22.5291 10.6562 23.687C11.6782 24.4096 12.8396 24.9112 14.0663 25.1595C15.2749 25.3843 16.5146 25.3843 17.7233 25.1595C18.9285 24.9558 20.0777 24.5021 21.097 23.8275C22.7172 25.0917 24.3447 26.3462 25.9649 27.6105C24.1918 29.2228 22.0304 30.3469 19.6923 30.8727C17.1115 31.4794 14.4221 31.4503 11.8551 30.788C9.82483 30.2459 7.92843 29.2903 6.28477 27.981C4.5452 26.5996 3.1243 24.859 2.11914 22.8781Z" fill="#319F43"/>
</g>
<defs>
<clipPath id="clip0_1111_6686">
<rect width="31" height="31" fill="white" transform="translate(0 0.5)"/>
</clipPath>
</defs>
</svg>
