<svg width="26" height="27" viewBox="0 0 26 27" fill="none" xmlns="http://www.w3.org/2000/svg">
<path d="M23.8612 17.5055V20.1465C23.8612 21.5138 22.8962 22.6595 21.6112 22.9408C21.6422 22.7474 21.6588 22.5493 21.6588 22.3474V15.5248H21.879C22.972 15.5248 23.8612 16.4133 23.8612 17.5055ZM5.36086 15.5248H5.14063C4.04764 15.5248 3.15845 16.4133 3.15845 17.5055V20.1465C3.15845 21.5138 4.12344 22.6595 5.4085 22.9408C5.37751 22.7474 5.36086 22.5493 5.36086 22.3474V15.5248ZM16.5932 16.4051H10.4264C10.305 16.4051 10.2062 16.5038 10.2062 16.6252V17.7256H16.8135V16.6252C16.8135 16.5038 16.7147 16.4051 16.5932 16.4051ZM10.2062 21.0268C10.2062 21.1481 10.305 21.2469 10.4264 21.2469H16.5932C16.7147 21.2469 16.8135 21.1481 16.8135 21.0268V19.0461H10.2061L10.2062 21.0268ZM20.3374 13.6166V22.3474C20.3374 23.6822 19.2506 24.7682 17.9147 24.7682H9.10501C7.76916 24.7682 6.68237 23.6822 6.68237 22.3474V13.6166C6.89699 13.6549 7.11759 13.6761 7.34312 13.6761H19.6767C19.9021 13.676 20.1227 13.6549 20.3374 13.6166ZM18.135 16.6252C18.135 15.7757 17.4434 15.0846 16.5932 15.0846H10.4264C9.57638 15.0846 8.88471 15.7757 8.88471 16.6252V21.0268C8.88471 21.8763 9.5763 22.5674 10.4264 22.5674H16.5932C17.4433 22.5674 18.135 21.8763 18.135 21.0268V16.6252ZM22.0993 8.17399V9.93468C22.0993 11.2696 21.0125 12.3556 19.6767 12.3556H7.34305C6.0072 12.3556 4.92041 11.2696 4.92041 9.93468V8.17399C4.92041 6.59637 6.2048 5.31291 7.78357 5.31291H19.2362C20.8149 5.31291 22.0993 6.59637 22.0993 8.17399ZM18.5754 8.12997C18.5754 7.76535 18.2796 7.46969 17.9147 7.46969H9.10501C8.74013 7.46969 8.44425 7.76528 8.44425 8.12997C8.44425 8.49458 8.74005 8.79024 9.10501 8.79024H15.492V9.49454C15.492 9.85916 15.7878 10.1548 16.1528 10.1548C16.5176 10.1548 16.8135 9.85923 16.8135 9.49454V8.79024H17.9147C18.2796 8.79024 18.5754 8.49458 18.5754 8.12997ZM19.5665 4.00542V3.33216C19.5665 2.72442 19.0734 2.23175 18.4652 2.23175H17.364C16.7558 2.23175 16.2628 2.72442 16.2628 3.33216V3.99236H19.236C19.3473 3.99243 19.4575 3.99683 19.5665 4.00542ZM10.7568 3.99243V3.33216C10.7568 2.72442 10.2638 2.23175 9.65561 2.23175H8.5544C7.94622 2.23175 7.4532 2.72442 7.4532 3.33216V4.00542C7.56223 3.99683 7.67238 3.99243 7.78357 3.99243H10.7568Z" fill="url(#paint0_linear_1051_5644)"/>
<defs>
<linearGradient id="paint0_linear_1051_5644" x1="13.5098" y1="24.7682" x2="13.5098" y2="2.23175" gradientUnits="userSpaceOnUse">
<stop stop-color="#FF81FF"/>
<stop offset="1" stop-color="#A93AFF"/>
</linearGradient>
</defs>
</svg>
