<svg width="19" height="19" viewBox="0 0 19 19" fill="none" xmlns="http://www.w3.org/2000/svg">
<path d="M14.25 2.375C15.0899 2.375 15.8953 2.70863 16.4892 3.3025C17.083 3.89636 17.4167 4.70181 17.4167 5.54167V11.875C17.4167 12.7149 17.083 13.5203 16.4892 14.1142C15.8953 14.708 15.0899 15.0417 14.25 15.0417H10.5102L6.74026 17.3035C6.62673 17.3716 6.49792 17.4102 6.36562 17.4156C6.23333 17.4211 6.10177 17.3933 5.983 17.3348C5.86422 17.2763 5.76202 17.1889 5.68575 17.0807C5.60948 16.9724 5.56158 16.8468 5.54643 16.7153L5.54168 16.625V15.0417H4.75001C3.93757 15.0417 3.1562 14.7294 2.56753 14.1695C1.97886 13.6095 1.62792 12.8448 1.5873 12.0333L1.58334 11.875V5.54167C1.58334 4.70181 1.91697 3.89636 2.51084 3.3025C3.1047 2.70863 3.91016 2.375 4.75001 2.375H14.25ZM11.0833 9.5H6.33334C6.12338 9.5 5.92202 9.58341 5.77355 9.73187C5.62508 9.88034 5.54168 10.0817 5.54168 10.2917C5.54168 10.5016 5.62508 10.703 5.77355 10.8515C5.92202 10.9999 6.12338 11.0833 6.33334 11.0833H11.0833C11.2933 11.0833 11.4947 10.9999 11.6431 10.8515C11.7916 10.703 11.875 10.5016 11.875 10.2917C11.875 10.0817 11.7916 9.88034 11.6431 9.73187C11.4947 9.58341 11.2933 9.5 11.0833 9.5ZM12.6667 6.33333H6.33334C6.12338 6.33333 5.92202 6.41674 5.77355 6.56521C5.62508 6.71367 5.54168 6.91504 5.54168 7.125C5.54168 7.33496 5.62508 7.53633 5.77355 7.68479C5.92202 7.83326 6.12338 7.91667 6.33334 7.91667H12.6667C12.8766 7.91667 13.078 7.83326 13.2265 7.68479C13.3749 7.53633 13.4583 7.33496 13.4583 7.125C13.4583 6.91504 13.3749 6.71367 13.2265 6.56521C13.078 6.41674 12.8766 6.33333 12.6667 6.33333Z" fill="#341949" fill-opacity="0.8"/>
</svg>
