<svg width="19" height="19" viewBox="0 0 19 19" fill="none" xmlns="http://www.w3.org/2000/svg">
<g clip-path="url(#clip0_998_1191)">
<path d="M17.3375 14.8464L17.158 14.688C16.6491 14.2343 16.2035 13.7142 15.8333 13.1417C15.4288 12.3515 15.1865 11.4883 15.1208 10.603V7.99583C15.1243 6.60545 14.62 5.26166 13.7025 4.21692C12.7851 3.17219 11.5178 2.49842 10.1386 2.32221V1.64138C10.1386 1.45451 10.0644 1.2753 9.93223 1.14317C9.8001 1.01103 9.62088 0.936798 9.43402 0.936798C9.24715 0.936798 9.06793 1.01103 8.9358 1.14317C8.80367 1.2753 8.72943 1.45451 8.72943 1.64138V2.33277C7.36262 2.52168 6.11058 3.19952 5.20521 4.24074C4.29984 5.28197 3.80248 6.61603 3.80527 7.99583V10.603C3.73959 11.4883 3.49733 12.3515 3.09277 13.1417C2.72907 13.7129 2.29065 14.233 1.78916 14.688L1.60971 14.8464V16.3347H17.3375V14.8464Z" fill="#FAF2FF" fill-opacity="0.8"/>
<path d="M8.08557 16.8889C8.13185 17.2234 8.29763 17.5299 8.55228 17.7518C8.80693 17.9736 9.13326 18.0958 9.47099 18.0958C9.80872 18.0958 10.135 17.9736 10.3897 17.7518C10.6443 17.5299 10.8101 17.2234 10.8564 16.8889H8.08557Z" fill="#FAF2FF" fill-opacity="0.8"/>
</g>
<defs>
<clipPath id="clip0_998_1191">
<rect width="19" height="19" fill="white"/>
</clipPath>
</defs>
</svg>
