<svg width="21" height="21" viewBox="0 0 21 21" fill="none" xmlns="http://www.w3.org/2000/svg">
<g clip-path="url(#clip0_1051_5680)">
<path d="M20.44 9.54546L18.69 8.87728C18.48 8.59091 17.71 7.76364 16.555 7.66819C15.785 7.60455 15.015 7.85909 14.28 8.43182C13.09 6.04546 12.075 5.18637 7.76996 0.540912C7.59496 0.350003 7.24496 0.41364 7.17496 0.636367C6.64996 2.06819 5.49496 4.51819 6.99996 7.66819L8.53996 10.85C6.40496 11.9 3.49996 11.5182 1.36496 12.0273C0.629964 12.2182 0.454964 13.0136 0.979964 13.4909C1.71496 14.1273 2.76496 14.35 3.74496 14.1273C4.16496 14.0318 4.58496 13.9364 4.96996 13.8727C6.33496 13.6182 6.40496 13.6182 7.52496 14.1591C8.15496 14.4773 9.65996 15.0818 11.41 15.1136V15.7818H7.41996C6.68496 15.7818 6.08996 16.3545 6.08996 17.0227C6.08996 17.6909 6.68496 18.2318 7.41996 18.2636H12.565C12.32 18.9318 12.04 19.3773 11.725 19.7273C11.585 19.8545 11.62 20.0455 11.76 20.1727C11.9 20.3 12.11 20.2682 12.25 20.1409C12.635 19.7273 12.95 19.2182 13.23 18.4864C13.825 18.9636 14.245 19.4727 14.49 20.0773C14.56 20.2364 14.77 20.3 14.945 20.2364C15.12 20.1727 15.19 19.9818 15.12 19.8227C14.84 19.25 14.455 18.7409 13.93 18.2636H17.255C17.99 18.2636 18.62 17.7227 18.62 17.0227C18.62 16.3227 18.025 15.7818 17.255 15.7818H13.965V14.6682C14.805 14.35 15.645 13.8091 16.415 13.0136C17.325 12.0273 17.01 11.5818 18.585 10.7864L20.405 10.1818C20.72 10.0227 20.72 9.64091 20.44 9.54546ZM7.41996 17.5636C7.06996 17.5636 6.75496 17.3091 6.75496 16.9591C6.75496 16.6409 7.03496 16.3545 7.41996 16.3545C7.76996 16.3545 8.08496 16.6091 8.08496 16.9591C8.08496 17.3091 7.76996 17.5636 7.41996 17.5636ZM13.265 15.75H12.11V15.05C12.495 15.0182 12.88 14.9545 13.265 14.8591V15.75ZM9.13496 10.4364L7.66496 7.38182C6.85996 5.72728 6.75496 3.88182 7.34996 2.13182L7.62996 1.36819C11.515 5.53637 12.425 6.33182 13.58 8.52728C11.76 8.43182 10.22 9.57728 9.13496 10.4364ZM16.345 9.19546C16.345 8.78182 17.045 8.78182 17.045 9.19546C17.045 9.60909 16.345 9.60909 16.345 9.19546Z" fill="#FAF2FF" fill-opacity="0.6"/>
</g>
<defs>
<clipPath id="clip0_1051_5680">
<rect width="21" height="21" fill="white"/>
</clipPath>
</defs>
</svg>
