<svg width="16" height="16" viewBox="0 0 16 16" fill="none" xmlns="http://www.w3.org/2000/svg">
<path d="M10.3333 9.33335H9.80665L9.61998 9.15335C10.0366 8.66932 10.3411 8.0992 10.5117 7.48376C10.6823 6.86832 10.7147 6.22278 10.6067 5.59335C10.2933 3.74001 8.74665 2.26001 6.87998 2.03335C6.22373 1.95032 5.55718 2.01853 4.93133 2.23274C4.30549 2.44695 3.73695 2.80149 3.2692 3.26923C2.80146 3.73698 2.44692 4.30552 2.23271 4.93136C2.0185 5.55721 1.95029 6.22376 2.03332 6.88001C2.25998 8.74668 3.73998 10.2933 5.59332 10.6067C6.22275 10.7147 6.86829 10.6823 7.48373 10.5117C8.09917 10.3411 8.66929 10.0366 9.15332 9.62001L9.33332 9.80668V10.3333L12.1667 13.1667C12.44 13.44 12.8867 13.44 13.16 13.1667C13.4333 12.8933 13.4333 12.4467 13.16 12.1733L10.3333 9.33335ZM6.33332 9.33335C4.67332 9.33335 3.33332 7.99335 3.33332 6.33335C3.33332 4.67335 4.67332 3.33335 6.33332 3.33335C7.99332 3.33335 9.33332 4.67335 9.33332 6.33335C9.33332 7.99335 7.99332 9.33335 6.33332 9.33335Z" fill="white"/>
</svg>
