<svg width="14" height="14" viewBox="0 0 14 14" fill="none" xmlns="http://www.w3.org/2000/svg">
<path fill-rule="evenodd" clip-rule="evenodd" d="M5.54165 0.583336C5.0584 0.583336 4.66665 0.975085 4.66665 1.45834C4.66665 1.94159 5.0584 2.33334 5.54165 2.33334H8.45833C8.94157 2.33334 9.33333 1.94159 9.33333 1.45834C9.33333 0.975085 8.94157 0.583336 8.45833 0.583336H5.54165ZM5.25001 3.5C4.28352 3.5 3.50001 2.7165 3.50001 1.75V1.41667C3.50001 1.2786 3.38808 1.16667 3.25001 1.16667C2.42157 1.16667 1.75 1.83825 1.75 2.66668L1.75001 11.6667C1.75001 12.6332 2.53351 13.4167 3.50001 13.4167H10.5C11.4665 13.4167 12.25 12.6332 12.25 11.6667V2.672C12.25 1.84065 11.576 1.16672 10.7446 1.16679C10.6061 1.1668 10.4938 1.27911 10.4938 1.41766V1.768C10.484 2.72742 9.7034 3.5 8.74393 3.5H5.25001ZM9.16247 6.00419C9.39027 6.23199 9.39027 6.60135 9.16247 6.82914L6.82914 9.16248C6.60135 9.39027 6.23198 9.39027 6.00419 9.16248L4.83752 7.99581C4.60972 7.76802 4.60971 7.39865 4.83751 7.17086C5.06532 6.94307 5.43467 6.94307 5.66247 7.17086L6.41667 7.92499L8.33752 6.00419C8.56532 5.77639 8.93468 5.77639 9.16247 6.00419Z" fill="#FFBD00"/>
</svg>
