<svg width="21" height="21" viewBox="0 0 21 21" fill="none" xmlns="http://www.w3.org/2000/svg">
<g opacity="0.8" clip-path="url(#clip0_1051_5667)">
<path d="M14.7842 18.4954V16.5197C15.1618 16.4118 15.4405 16.0674 15.4405 15.6558C15.4405 15.1583 15.0358 14.7535 14.5381 14.7535H3.49242C2.70207 14.7535 1.9484 15.0949 1.42465 15.6899C0.901865 16.2842 0.660096 17.0784 0.761513 17.869C0.93663 19.2331 2.14819 20.2617 3.57974 20.2617H14.5381C15.0358 20.2617 15.4405 19.8568 15.4405 19.3594C15.4405 18.9478 15.1618 18.6034 14.7842 18.4954ZM3.49242 18.457C3.20643 18.457 2.93823 18.3293 2.75654 18.1068C2.57261 17.8815 2.50404 17.5971 2.56364 17.306C2.65224 16.8726 3.05727 16.5581 3.52638 16.5581H14.292V18.457H3.49242Z" fill="#FAF2FF" fill-opacity="0.6"/>
<path d="M6.49493 3.7905H10.8856V5.44261H6.49493V3.7905Z" fill="#FAF2FF" fill-opacity="0.6"/>
<path d="M10.8858 1.64062C10.8858 1.14315 10.4808 0.738281 9.98331 0.738281H7.3974C6.89993 0.738281 6.49506 1.14315 6.49506 1.64062V3.29823H10.8858V1.64062Z" fill="#FAF2FF" fill-opacity="0.6"/>
<path d="M13.7998 4.37041H11.378V14.2613H13.7998V4.37041ZM12.835 12.8001C12.835 12.9359 12.7248 13.0462 12.5889 13.0462C12.453 13.0462 12.3428 12.9359 12.3428 12.8001V6.81596C12.3428 6.6801 12.453 6.56987 12.5889 6.56987C12.7248 6.56987 12.835 6.6801 12.835 6.81596V12.8001Z" fill="#FAF2FF" fill-opacity="0.6"/>
<path d="M6.49493 5.93447H10.8856V14.261H6.49493V5.93447Z" fill="#FAF2FF" fill-opacity="0.6"/>
<path d="M17.2768 4.9957C17.6845 4.9957 18.0151 4.66516 18.0151 4.25742C18.0151 3.84968 17.6845 3.51914 17.2768 3.51914C16.8691 3.51914 16.5385 3.84968 16.5385 4.25742C16.5385 4.66516 16.8691 4.9957 17.2768 4.9957Z" fill="#FAF2FF" fill-opacity="0.6"/>
<path d="M17.2769 7.09618C17.0506 7.09618 16.8667 7.28011 16.8667 7.50634V17.0707C16.8667 17.2969 17.0506 17.4808 17.2769 17.4808C17.5031 17.4808 17.687 17.2969 17.687 17.0707V7.50634C17.687 7.28011 17.5031 7.09618 17.2769 7.09618Z" fill="#FAF2FF" fill-opacity="0.6"/>
<path d="M19.3593 0.738281H15.1943C14.6967 0.738281 14.292 1.14299 14.292 1.64062V14.2613H14.5381C15.3071 14.2613 15.9326 14.8869 15.9326 15.6558C15.9326 16.1529 15.6691 16.5871 15.2764 16.834V18.1811C15.6691 18.4281 15.9326 18.8622 15.9326 19.3594C15.9326 19.7051 15.8015 20.0178 15.5925 20.2617H20.0156C20.1515 20.2617 20.2617 20.1515 20.2617 20.0156V1.64062C20.2617 1.14299 19.857 0.738281 19.3593 0.738281ZM18.1792 17.0707C18.1792 17.5681 17.7745 17.973 17.2768 17.973C16.7792 17.973 16.3745 17.5681 16.3745 17.0707V7.50634C16.3745 7.00886 16.7792 6.60399 17.2768 6.60399C17.7745 6.60399 18.1792 7.00886 18.1792 7.50634V17.0707ZM17.2768 5.48792C16.5985 5.48792 16.0464 4.93597 16.0464 4.25745C16.0464 3.57893 16.5985 3.02699 17.2768 3.02699C17.9552 3.02699 18.5073 3.57893 18.5073 4.25745C18.5073 4.93597 17.9552 5.48792 17.2768 5.48792Z" fill="#FAF2FF" fill-opacity="0.6"/>
</g>
<defs>
<clipPath id="clip0_1051_5667">
<rect width="21" height="21" fill="white"/>
</clipPath>
</defs>
</svg>
