<svg width="21" height="21" viewBox="0 0 21 21" fill="none" xmlns="http://www.w3.org/2000/svg">
<g opacity="0.8" clip-path="url(#clip0_1051_5663)">
<path d="M11.9135 10.5C11.9142 11.1424 12.1697 11.7583 12.624 12.2125C13.0782 12.6668 13.6941 12.9223 14.3365 12.9231H21V8.07692H14.3365C13.6941 8.07767 13.0782 8.3332 12.624 8.78745C12.1697 9.2417 11.9142 9.85759 11.9135 10.5ZM15.851 9.00577C16.1465 9.00577 16.4354 9.0934 16.6811 9.25759C16.9268 9.42178 17.1183 9.65514 17.2314 9.92818C17.3445 10.2012 17.3741 10.5017 17.3165 10.7915C17.2588 11.0814 17.1165 11.3476 16.9075 11.5566C16.6986 11.7655 16.4323 11.9079 16.1425 11.9655C15.8526 12.0232 15.5522 11.9936 15.2791 11.8805C15.0061 11.7674 14.7727 11.5759 14.6085 11.3301C14.4444 11.0844 14.3567 10.7955 14.3567 10.5C14.3567 10.1037 14.5141 9.72364 14.7944 9.44342C15.0746 9.16319 15.4547 9.00577 15.851 9.00577Z" fill="#FAF2FF" fill-opacity="0.6"/>
<path d="M18.5567 2.625H2.44327C1.7955 2.62575 1.17448 2.8834 0.716443 3.34144C0.258404 3.79948 0.000748183 4.4205 0 5.06827L0 15.9317C0.000748183 16.5795 0.258404 17.2005 0.716443 17.6586C1.17448 18.1166 1.7955 18.3743 2.44327 18.375H18.5567C19.2045 18.3743 19.8255 18.1166 20.2836 17.6586C20.7416 17.2005 20.9993 16.5795 21 15.9317V14.1346H14.3365C13.3726 14.1346 12.4481 13.7517 11.7665 13.0701C11.0849 12.3884 10.7019 11.464 10.7019 10.5C10.7019 9.53604 11.0849 8.61156 11.7665 7.92994C12.4481 7.24832 13.3726 6.86538 14.3365 6.86538H21V5.06827C20.9993 4.4205 20.7416 3.79948 20.2836 3.34144C19.8255 2.8834 19.2045 2.62575 18.5567 2.625Z" fill="#FAF2FF" fill-opacity="0.6"/>
</g>
<defs>
<clipPath id="clip0_1051_5663">
<rect width="21" height="21" fill="white"/>
</clipPath>
</defs>
</svg>
