<svg width="25" height="26" viewBox="0 0 25 26" fill="none" xmlns="http://www.w3.org/2000/svg">
<path d="M22.9436 16.8572V19.4004C22.9436 20.717 22.0157 21.8203 20.7801 22.0912C20.8099 21.9049 20.8259 21.7141 20.8259 21.5197V14.9498H21.0377C22.0886 14.9498 22.9436 15.8054 22.9436 16.8572ZM5.15481 14.9498H4.94306C3.8921 14.9498 3.03711 15.8054 3.03711 16.8572V19.4004C3.03711 20.717 3.96499 21.8203 5.20063 22.0912C5.17083 21.9049 5.15481 21.7141 5.15481 21.5197V14.9498ZM15.9552 15.7975H10.0256C9.90881 15.7975 9.81381 15.8926 9.81381 16.0094V17.0691H16.167V16.0094C16.1669 15.8926 16.0719 15.7975 15.9552 15.7975ZM9.81381 20.248C9.81381 20.3649 9.90881 20.46 10.0256 20.46H15.9552C16.0719 20.46 16.1669 20.3649 16.1669 20.248V18.3407H9.81374L9.81381 20.248ZM19.5553 13.1123V21.5197C19.5553 22.8051 18.5103 23.8509 17.2258 23.8509H8.75495C7.47049 23.8509 6.42549 22.8051 6.42549 21.5197V13.1123C6.63186 13.1492 6.84398 13.1696 7.06083 13.1696H18.92C19.1368 13.1695 19.3489 13.1492 19.5553 13.1123ZM17.4376 16.0094C17.4376 15.1915 16.7726 14.5259 15.9552 14.5259H10.0256C9.20819 14.5259 8.54313 15.1914 8.54313 16.0094V20.248C8.54313 21.066 9.20812 21.7316 10.0256 21.7316H15.9552C16.7725 21.7316 17.4376 21.0661 17.4376 20.248V16.0094ZM21.2495 7.87127V9.56674C21.2495 10.8522 20.2045 11.898 18.92 11.898H7.06076C5.77629 11.898 4.7313 10.8522 4.7313 9.56674V7.87127C4.7313 6.35207 5.96629 5.11615 7.48435 5.11615H18.4965C20.0144 5.11615 21.2495 6.35207 21.2495 7.87127ZM17.8611 7.82887C17.8611 7.47776 17.5767 7.19305 17.2258 7.19305H8.75495C8.40411 7.19305 8.11961 7.47769 8.11961 7.82887C8.11961 8.17998 8.40404 8.46469 8.75495 8.46469H14.8963V9.14291C14.8963 9.49402 15.1807 9.77873 15.5317 9.77873C15.8825 9.77873 16.167 9.49409 16.167 9.14291V8.46469H17.2258C17.5767 8.46469 17.8611 8.17998 17.8611 7.82887ZM18.8141 3.85708V3.20876C18.8141 2.62353 18.34 2.14911 17.7551 2.14911H16.6963C16.1115 2.14911 15.6374 2.62353 15.6374 3.20876V3.84451H18.4963C18.6033 3.84458 18.7093 3.84882 18.8141 3.85708ZM10.3432 3.84458V3.20876C10.3432 2.62353 9.86917 2.14911 9.28438 2.14911H8.22553C7.64074 2.14911 7.16668 2.62353 7.16668 3.20876V3.85708C7.27151 3.84882 7.37743 3.84458 7.48435 3.84458H10.3432Z" fill="#FAF2FF"/>
</svg>
